<svg xmlns="http://www.w3.org/2000/svg" xmlns:xlink="http://www.w3.org/1999/xlink" version="1.1" style="" xml:space="preserve" width="256" height="256"><rect id="backgroundrect" width="100%" height="100%" x="0" y="0" fill="none" stroke="none" class="" style=""/><g class="currentLayer" style=""><title>Layer 1</title><g id="svg_1" class=""><g id="svg_2"><path d="M36.53986326983449,21.54132738515634 V7.301224879472443 c0,-3.909047746658325 -3.4465438842773435,-6.701224708557128 -7.754723739624024,-6.701224708557128 H12.126844089536645 c-4.30817985534668,0 -7.754723739624024,2.7921769618988037 -7.754723739624024,6.701224708557128 v14.240102505683899 c-1.7232719421386722,0.8376530885696413 -2.872119903564453,2.5129592657089233 -2.872119903564453,4.4674831390380865 V43.59952538415689 c0,1.9545238733291628 1.1488479614257814,3.629830050468445 2.872119903564453,4.4674831390380865 v166.4137469291687 c0,0.8376530885696413 0.28721199035644535,1.6753061771392825 0.5744239807128907,2.2337415695190432 l10.339631652832031,30.99316427707672 c0.5744239807128907,2.2337415695190432 2.872119903564453,3.629830050468445 4.8826038360595705,3.629830050468445 c2.2976959228515628,0 4.30817985534668,-1.3960884809494019 4.8826038360595705,-3.629830050468445 L35.965439289121605,216.71449702188272 c0.28721199035644535,-0.5584353923797608 0.5744239807128907,-1.3960884809494019 0.5744239807128907,-2.2337415695190432 V48.06700852319498 c1.7232719421386722,-0.8376530885696413 2.872119903564453,-2.5129592657089233 2.872119903564453,-4.4674831390380865 V26.008810524194427 C39.411983173398944,24.054286650865265 38.26313521197317,22.378980473725985 36.53986326983449,21.54132738515634 zM12.126844089536645,31.034729055612274 H28.785139530210472 v7.25966010093689 H12.126844089536645 V31.034729055612274 zM14.998963993101096,10.651837233751008 H25.91301962664602 v10.051837062835693 H14.998963993101096 V10.651837233751008 zM20.455991809873556,229.5585110466172 l-4.020967864990234,-11.447925543785095 c2.5849079132080077,-0.2792176961898804 5.1698158264160154,-0.2792176961898804 7.754723739624024,0 L20.455991809873556,229.5585110466172 zM14.998963993101096,208.05874843999644 v-159.1540868282318 H25.91301962664602 v159.1540868282318 C22.17926375201223,207.5003130476167 18.445507877378443,207.5003130476167 14.998963993101096,208.05874843999644 z" id="svg_3"/><path d="M249.07673613360404,49.46309700414438 l-48.8260383605957,-47.46700835227966 c-0.8616359710693361,-0.8376530885696413 -2.2976959228515628,-1.3960884809494019 -3.7337558746337893,-1.3960884809494019 H60.95288245013234 c-2.872119903564453,0 -5.1698158264160154,2.2337415695190432 -5.1698158264160154,5.0259185314178465 v240.406436419487 c0,2.7921769618988037 2.2976959228515628,5.0259185314178465 5.1698158264160154,5.0259185314178465 h157.96659469604492 c0,0 0.5744239807128907,0 1.1488479614257814,0 c3.7337558746337893,0 15.2222354888916,-0.5584353923797608 22.976959228515625,-7.81809549331665 c5.1698158264160154,-4.7467008352279665 7.754723739624024,-11.168707847595215 7.754723739624024,-18.986803340911866 V53.09292705461282 C250.51279608538627,51.69683857366342 250.2255840950298,50.30075009271402 249.07673613360404,49.46309700414438 zM232.70565268328664,47.7877908270051 H201.97396971514698 V17.911497334687898 L232.70565268328664,47.7877908270051 zM235.86498457720754,235.98051805898447 c-6.031451797485352,5.584353923797607 -16.083871459960935,5.0259185314178465 -16.65829544067383,5.0259185314178465 H66.12269827654836 V10.651837233751008 h125.22442779541016 v42.16187212467194 c0,2.7921769618988037 2.2976959228515628,5.0259185314178465 5.1698158264160154,5.0259185314178465 h43.369010543823244 v166.4137469291687 C240.17316443255422,229.5585110466172 238.737104480772,233.18834109708567 235.86498457720754,235.98051805898447 z" id="svg_4"/><path d="M221.21717306902883,147.74772606298225 H125.28836828997609 c-2.872119903564453,0 -5.1698158264160154,2.2337415695190432 -5.1698158264160154,5.0259185314178465 s2.2976959228515628,5.0259185314178465 5.1698158264160154,5.0259185314178465 H221.21717306902883 c2.872119903564453,0 5.1698158264160154,-2.2337415695190432 5.1698158264160154,-5.0259185314178465 S224.37650496294972,147.74772606298225 221.21717306902883,147.74772606298225 z" id="svg_5"/><path d="M125.28836828997609,175.11106028959054 h73.23905754089355 c2.872119903564453,0 5.1698158264160154,-2.2337415695190432 5.1698158264160154,-5.0259185314178465 s-2.2976959228515628,-5.0259185314178465 -5.1698158264160154,-5.0259185314178465 H125.28836828997609 c-2.872119903564453,0 -5.1698158264160154,2.2337415695190432 -5.1698158264160154,5.0259185314178465 S122.41624838641165,175.11106028959054 125.28836828997609,175.11106028959054 z" id="svg_6"/><path d="M102.31140906146048,144.3971137087037 l-10.052419662475586,12.285578632354737 l-2.0104839324951174,-1.9545238733291628 c-2.0104839324951174,-1.9545238733291628 -5.45702781677246,-1.6753061771392825 -7.467511749267579,0.2792176961898804 c-2.0104839324951174,1.9545238733291628 -1.7232719421386722,5.3051362276077265 0.28721199035644535,7.25966010093689 l6.318663787841797,5.584353923797607 c0.8616359710693361,0.8376530885696413 2.2976959228515628,1.3960884809494019 3.4465438842773435,1.3960884809494019 h0.28721199035644535 c1.4360599517822266,0 2.872119903564453,-0.8376530885696413 3.7337558746337893,-1.9545238733291628 l13.786175537109374,-16.753061771392822 c1.7232719421386722,-2.2337415695190432 1.4360599517822266,-5.3051362276077265 -0.8616359710693361,-7.25966010093689 C107.48122488787648,141.6049367468049 104.32189299395559,142.16337213918464 102.31140906146048,144.3971137087037 z" id="svg_7"/><path d="M221.21717306902883,103.35211236879128 H125.28836828997609 c-2.872119903564453,0 -5.1698158264160154,2.2337415695190432 -5.1698158264160154,5.0259185314178465 s2.2976959228515628,5.0259185314178465 5.1698158264160154,5.0259185314178465 H221.21717306902883 c2.872119903564453,0 5.1698158264160154,-2.2337415695190432 5.1698158264160154,-5.0259185314178465 C226.6742008858013,105.58585393831034 224.37650496294972,103.35211236879128 221.21717306902883,103.35211236879128 z" id="svg_8"/><path d="M125.28836828997609,130.43622889920968 h73.23905754089355 c2.872119903564453,0 5.1698158264160154,-2.2337415695190432 5.1698158264160154,-5.0259185314178465 s-2.2976959228515628,-5.0259185314178465 -5.1698158264160154,-5.0259185314178465 H125.28836828997609 c-2.872119903564453,0 -5.1698158264160154,2.2337415695190432 -5.1698158264160154,5.0259185314178465 S122.41624838641165,130.43622889920968 125.28836828997609,130.43622889920968 z" id="svg_9"/><path d="M102.31140906146048,99.72228231832285 l-10.052419662475586,12.285578632354737 l-2.0104839324951174,-1.9545238733291628 c-2.0104839324951174,-1.9545238733291628 -5.45702781677246,-1.6753061771392825 -7.467511749267579,0.2792176961898804 c-2.0104839324951174,1.9545238733291628 -1.7232719421386722,5.3051362276077265 0.28721199035644535,7.25966010093689 l6.318663787841797,5.584353923797607 c0.8616359710693361,0.8376530885696413 2.2976959228515628,1.3960884809494019 3.4465438842773435,1.3960884809494019 h0.28721199035644535 c1.4360599517822266,0 2.872119903564453,-0.8376530885696413 3.7337558746337893,-1.9545238733291628 l13.786175537109374,-16.753061771392822 c1.7232719421386722,-2.2337415695190432 1.4360599517822266,-5.3051362276077265 -0.8616359710693361,-7.25966010093689 C107.48122488787648,97.20932305261393 104.32189299395559,97.4885407488038 102.31140906146048,99.72228231832285 z" id="svg_10"/><path d="M221.21717306902883,192.14333975717327 H125.28836828997609 c-2.872119903564453,0 -5.1698158264160154,2.2337415695190432 -5.1698158264160154,5.0259185314178465 s2.2976959228515628,5.0259185314178465 5.1698158264160154,5.0259185314178465 H221.21717306902883 c2.872119903564453,0 5.1698158264160154,-2.2337415695190432 5.1698158264160154,-5.0259185314178465 C226.6742008858013,194.3770813266923 224.37650496294972,192.14333975717327 221.21717306902883,192.14333975717327 z" id="svg_11"/><path d="M198.52742583086965,209.17561922475593 H125.28836828997609 c-2.872119903564453,0 -5.1698158264160154,2.2337415695190432 -5.1698158264160154,5.0259185314178465 s2.2976959228515628,5.0259185314178465 5.1698158264160154,5.0259185314178465 h73.23905754089355 c2.872119903564453,0 5.1698158264160154,-2.2337415695190432 5.1698158264160154,-5.0259185314178465 S201.3995457344341,209.17561922475593 198.52742583086965,209.17561922475593 z" id="svg_12"/><path d="M102.31140906146048,189.35116279527446 l-10.052419662475586,12.285578632354737 l-2.0104839324951174,-1.9545238733291628 c-2.0104839324951174,-1.9545238733291628 -5.45702781677246,-1.6753061771392825 -7.467511749267579,0.2792176961898804 s-1.7232719421386722,5.3051362276077265 0.28721199035644535,7.25966010093689 l6.318663787841797,5.584353923797607 c0.8616359710693361,0.8376530885696413 2.2976959228515628,1.3960884809494019 3.4465438842773435,1.3960884809494019 h0.28721199035644535 c1.4360599517822266,0 2.872119903564453,-0.8376530885696413 3.7337558746337893,-1.9545238733291628 l13.786175537109374,-16.753061771392822 c1.7232719421386722,-2.2337415695190432 1.4360599517822266,-5.3051362276077265 -0.8616359710693361,-7.25966010093689 C107.48122488787648,186.55898583337566 104.32189299395559,187.1174212257554 102.31140906146048,189.35116279527446 z" id="svg_13"/><path d="M84.21705366900441,48.90466161176462 l6.605875778198242,6.422007012367248 l-6.605875778198242,6.422007012367248 c-2.0104839324951174,1.9545238733291628 -2.0104839324951174,5.0259185314178465 0,6.980442404747009 c2.0104839324951174,1.9545238733291628 5.1698158264160154,1.9545238733291628 7.180299758911133,0 l6.605875778198242,-6.422007012367248 l6.605875778198242,6.422007012367248 c2.0104839324951174,1.9545238733291628 5.1698158264160154,1.9545238733291628 7.180299758911133,0 c2.0104839324951174,-1.9545238733291628 2.0104839324951174,-5.0259185314178465 0,-6.980442404747009 l-6.605875778198242,-6.422007012367248 l6.605875778198242,-6.422007012367248 c2.0104839324951174,-1.9545238733291628 2.0104839324951174,-5.0259185314178465 0,-6.980442404747009 s-5.1698158264160154,-1.9545238733291628 -7.180299758911133,0 l-6.605875778198242,6.422007012367248 l-6.605875778198242,-6.422007012367248 c-2.0104839324951174,-1.9545238733291628 -5.1698158264160154,-1.9545238733291628 -7.180299758911133,0 C82.20656973650931,43.87874308034677 81.91935774615285,46.95013773843545 84.21705366900441,48.90466161176462 z" id="svg_14"/></g></g><g class="" id="svg_16" fill="#000099" fill-opacity="1" opacity="1" stroke-opacity="1" stroke="#4a6cd3"><g id="svg_17" fill="#000099" fill-opacity="1" opacity="1" stroke="#4a6cd3"><path d="M36.53986326983449,21.54132738515634 V7.301224879472443 c0,-3.909047746658325 -3.4465438842773435,-6.701224708557128 -7.754723739624024,-6.701224708557128 H12.126844089536645 c-4.30817985534668,0 -7.754723739624024,2.7921769618988037 -7.754723739624024,6.701224708557128 v14.240102505683899 c-1.7232719421386722,0.8376530885696413 -2.872119903564453,2.5129592657089233 -2.872119903564453,4.4674831390380865 V43.59952538415689 c0,1.9545238733291628 1.1488479614257814,3.629830050468445 2.872119903564453,4.4674831390380865 v166.4137469291687 c0,0.8376530885696413 0.28721199035644535,1.6753061771392825 0.5744239807128907,2.2337415695190432 l10.339631652832031,30.99316427707672 c0.5744239807128907,2.2337415695190432 2.872119903564453,3.629830050468445 4.8826038360595705,3.629830050468445 c2.2976959228515628,0 4.30817985534668,-1.3960884809494019 4.8826038360595705,-3.629830050468445 L35.965439289121605,216.71449702188272 c0.28721199035644535,-0.5584353923797608 0.5744239807128907,-1.3960884809494019 0.5744239807128907,-2.2337415695190432 V48.06700852319498 c1.7232719421386722,-0.8376530885696413 2.872119903564453,-2.5129592657089233 2.872119903564453,-4.4674831390380865 V26.008810524194427 C39.411983173398944,24.054286650865265 38.26313521197317,22.378980473725985 36.53986326983449,21.54132738515634 zM12.126844089536645,31.034729055612274 H28.785139530210472 v7.25966010093689 H12.126844089536645 V31.034729055612274 zM14.998963993101096,10.651837233751008 H25.91301962664602 v10.051837062835693 H14.998963993101096 V10.651837233751008 zM20.455991809873556,229.5585110466172 l-4.020967864990234,-11.447925543785095 c2.5849079132080077,-0.2792176961898804 5.1698158264160154,-0.2792176961898804 7.754723739624024,0 L20.455991809873556,229.5585110466172 zM14.998963993101096,208.05874843999644 v-159.1540868282318 H25.91301962664602 v159.1540868282318 C22.17926375201223,207.5003130476167 18.445507877378443,207.5003130476167 14.998963993101096,208.05874843999644 z" id="svg_3" fill="#000099" fill-opacity="1" opacity="1" stroke="#4a6cd3"/><path d="M249.07673613360404,49.46309700414438 l-48.8260383605957,-47.46700835227966 c-0.8616359710693361,-0.8376530885696413 -2.2976959228515628,-1.3960884809494019 -3.7337558746337893,-1.3960884809494019 H60.95288245013234 c-2.872119903564453,0 -5.1698158264160154,2.2337415695190432 -5.1698158264160154,5.0259185314178465 v240.406436419487 c0,2.7921769618988037 2.2976959228515628,5.0259185314178465 5.1698158264160154,5.0259185314178465 h157.96659469604492 c0,0 0.5744239807128907,0 1.1488479614257814,0 c3.7337558746337893,0 15.2222354888916,-0.5584353923797608 22.976959228515625,-7.81809549331665 c5.1698158264160154,-4.7467008352279665 7.754723739624024,-11.168707847595215 7.754723739624024,-18.986803340911866 V53.09292705461282 C250.51279608538627,51.69683857366342 250.2255840950298,50.30075009271402 249.07673613360404,49.46309700414438 zM232.70565268328664,47.7877908270051 H201.97396971514698 V17.911497334687898 L232.70565268328664,47.7877908270051 zM235.86498457720754,235.98051805898447 c-6.031451797485352,5.584353923797607 -16.083871459960935,5.0259185314178465 -16.65829544067383,5.0259185314178465 H66.12269827654836 V10.651837233751008 h125.22442779541016 v42.16187212467194 c0,2.7921769618988037 2.2976959228515628,5.0259185314178465 5.1698158264160154,5.0259185314178465 h43.369010543823244 v166.4137469291687 C240.17316443255422,229.5585110466172 238.737104480772,233.18834109708567 235.86498457720754,235.98051805898447 z" id="svg_4" fill="#000099" fill-opacity="1" opacity="1" stroke="#4a6cd3"/><path d="M221.21717306902883,147.74772606298225 H125.28836828997609 c-2.872119903564453,0 -5.1698158264160154,2.2337415695190432 -5.1698158264160154,5.0259185314178465 s2.2976959228515628,5.0259185314178465 5.1698158264160154,5.0259185314178465 H221.21717306902883 c2.872119903564453,0 5.1698158264160154,-2.2337415695190432 5.1698158264160154,-5.0259185314178465 S224.37650496294972,147.74772606298225 221.21717306902883,147.74772606298225 z" id="svg_5" fill="#000099" fill-opacity="1" opacity="1" stroke="#4a6cd3"/><path d="M125.28836828997609,175.11106028959054 h73.23905754089355 c2.872119903564453,0 5.1698158264160154,-2.2337415695190432 5.1698158264160154,-5.0259185314178465 s-2.2976959228515628,-5.0259185314178465 -5.1698158264160154,-5.0259185314178465 H125.28836828997609 c-2.872119903564453,0 -5.1698158264160154,2.2337415695190432 -5.1698158264160154,5.0259185314178465 S122.41624838641165,175.11106028959054 125.28836828997609,175.11106028959054 z" id="svg_6" fill="#000099" fill-opacity="1" opacity="1" stroke="#4a6cd3"/><path d="M102.31140906146048,144.3971137087037 l-10.052419662475586,12.285578632354737 l-2.0104839324951174,-1.9545238733291628 c-2.0104839324951174,-1.9545238733291628 -5.45702781677246,-1.6753061771392825 -7.467511749267579,0.2792176961898804 c-2.0104839324951174,1.9545238733291628 -1.7232719421386722,5.3051362276077265 0.28721199035644535,7.25966010093689 l6.318663787841797,5.584353923797607 c0.8616359710693361,0.8376530885696413 2.2976959228515628,1.3960884809494019 3.4465438842773435,1.3960884809494019 h0.28721199035644535 c1.4360599517822266,0 2.872119903564453,-0.8376530885696413 3.7337558746337893,-1.9545238733291628 l13.786175537109374,-16.753061771392822 c1.7232719421386722,-2.2337415695190432 1.4360599517822266,-5.3051362276077265 -0.8616359710693361,-7.25966010093689 C107.48122488787648,141.6049367468049 104.32189299395559,142.16337213918464 102.31140906146048,144.3971137087037 z" id="svg_7" fill="#000099" fill-opacity="1" opacity="1" stroke="#4a6cd3"/><path d="M221.21717306902883,103.35211236879128 H125.28836828997609 c-2.872119903564453,0 -5.1698158264160154,2.2337415695190432 -5.1698158264160154,5.0259185314178465 s2.2976959228515628,5.0259185314178465 5.1698158264160154,5.0259185314178465 H221.21717306902883 c2.872119903564453,0 5.1698158264160154,-2.2337415695190432 5.1698158264160154,-5.0259185314178465 C226.6742008858013,105.58585393831034 224.37650496294972,103.35211236879128 221.21717306902883,103.35211236879128 z" id="svg_8" fill="#000099" fill-opacity="1" opacity="1" stroke="#4a6cd3"/><path d="M125.28836828997609,130.43622889920968 h73.23905754089355 c2.872119903564453,0 5.1698158264160154,-2.2337415695190432 5.1698158264160154,-5.0259185314178465 s-2.2976959228515628,-5.0259185314178465 -5.1698158264160154,-5.0259185314178465 H125.28836828997609 c-2.872119903564453,0 -5.1698158264160154,2.2337415695190432 -5.1698158264160154,5.0259185314178465 S122.41624838641165,130.43622889920968 125.28836828997609,130.43622889920968 z" id="svg_9" fill="#000099" fill-opacity="1" opacity="1" stroke="#4a6cd3"/><path d="M102.31140906146048,99.72228231832285 l-10.052419662475586,12.285578632354737 l-2.0104839324951174,-1.9545238733291628 c-2.0104839324951174,-1.9545238733291628 -5.45702781677246,-1.6753061771392825 -7.467511749267579,0.2792176961898804 c-2.0104839324951174,1.9545238733291628 -1.7232719421386722,5.3051362276077265 0.28721199035644535,7.25966010093689 l6.318663787841797,5.584353923797607 c0.8616359710693361,0.8376530885696413 2.2976959228515628,1.3960884809494019 3.4465438842773435,1.3960884809494019 h0.28721199035644535 c1.4360599517822266,0 2.872119903564453,-0.8376530885696413 3.7337558746337893,-1.9545238733291628 l13.786175537109374,-16.753061771392822 c1.7232719421386722,-2.2337415695190432 1.4360599517822266,-5.3051362276077265 -0.8616359710693361,-7.25966010093689 C107.48122488787648,97.20932305261393 104.32189299395559,97.4885407488038 102.31140906146048,99.72228231832285 z" id="svg_10" fill="#000099" fill-opacity="1" opacity="1" stroke="#4a6cd3"/><path d="M221.21717306902883,192.14333975717327 H125.28836828997609 c-2.872119903564453,0 -5.1698158264160154,2.2337415695190432 -5.1698158264160154,5.0259185314178465 s2.2976959228515628,5.0259185314178465 5.1698158264160154,5.0259185314178465 H221.21717306902883 c2.872119903564453,0 5.1698158264160154,-2.2337415695190432 5.1698158264160154,-5.0259185314178465 C226.6742008858013,194.3770813266923 224.37650496294972,192.14333975717327 221.21717306902883,192.14333975717327 z" id="svg_11" fill="#000099" fill-opacity="1" opacity="1" stroke="#4a6cd3"/><path d="M198.52742583086965,209.17561922475593 H125.28836828997609 c-2.872119903564453,0 -5.1698158264160154,2.2337415695190432 -5.1698158264160154,5.0259185314178465 s2.2976959228515628,5.0259185314178465 5.1698158264160154,5.0259185314178465 h73.23905754089355 c2.872119903564453,0 5.1698158264160154,-2.2337415695190432 5.1698158264160154,-5.0259185314178465 S201.3995457344341,209.17561922475593 198.52742583086965,209.17561922475593 z" id="svg_12" fill="#000099" fill-opacity="1" opacity="1" stroke="#4a6cd3"/><path d="M102.31140906146048,189.35116279527446 l-10.052419662475586,12.285578632354737 l-2.0104839324951174,-1.9545238733291628 c-2.0104839324951174,-1.9545238733291628 -5.45702781677246,-1.6753061771392825 -7.467511749267579,0.2792176961898804 s-1.7232719421386722,5.3051362276077265 0.28721199035644535,7.25966010093689 l6.318663787841797,5.584353923797607 c0.8616359710693361,0.8376530885696413 2.2976959228515628,1.3960884809494019 3.4465438842773435,1.3960884809494019 h0.28721199035644535 c1.4360599517822266,0 2.872119903564453,-0.8376530885696413 3.7337558746337893,-1.9545238733291628 l13.786175537109374,-16.753061771392822 c1.7232719421386722,-2.2337415695190432 1.4360599517822266,-5.3051362276077265 -0.8616359710693361,-7.25966010093689 C107.48122488787648,186.55898583337566 104.32189299395559,187.1174212257554 102.31140906146048,189.35116279527446 z" id="svg_13" fill="#000099" fill-opacity="1" opacity="1" stroke="#4a6cd3"/><path d="M84.21705366900441,48.90466161176462 l6.605875778198242,6.422007012367248 l-6.605875778198242,6.422007012367248 c-2.0104839324951174,1.9545238733291628 -2.0104839324951174,5.0259185314178465 0,6.980442404747009 c2.0104839324951174,1.9545238733291628 5.1698158264160154,1.9545238733291628 7.180299758911133,0 l6.605875778198242,-6.422007012367248 l6.605875778198242,6.422007012367248 c2.0104839324951174,1.9545238733291628 5.1698158264160154,1.9545238733291628 7.180299758911133,0 c2.0104839324951174,-1.9545238733291628 2.0104839324951174,-5.0259185314178465 0,-6.980442404747009 l-6.605875778198242,-6.422007012367248 l6.605875778198242,-6.422007012367248 c2.0104839324951174,-1.9545238733291628 2.0104839324951174,-5.0259185314178465 0,-6.980442404747009 s-5.1698158264160154,-1.9545238733291628 -7.180299758911133,0 l-6.605875778198242,6.422007012367248 l-6.605875778198242,-6.422007012367248 c-2.0104839324951174,-1.9545238733291628 -5.1698158264160154,-1.9545238733291628 -7.180299758911133,0 C82.20656973650931,43.87874308034677 81.91935774615285,46.95013773843545 84.21705366900441,48.90466161176462 z" id="svg_14" fill="#000099" fill-opacity="1" opacity="1" stroke="#4a6cd3"/></g></g><path d="M155.3962082342057,70.43125310097548 h-25.65493487721653 c-1.637549034715949,0 -3.002173230312573,-0.8676416612656037 -3.8209477476705467,-2.3137110967082766 c-0.818774517357975,-1.4460694354426726 -0.818774517357975,-3.1813527579738796 0,-4.9166360805050875 l12.827467438608265,-23.71553874125983 c0.818774517357975,-1.4460694354426726 2.183398712954599,-2.3137110967082766 3.8209477476705467,-2.3137110967082766 l0,0 c1.637549034715949,0 3.002173230312573,0.8676416612656037 3.8209477476705467,2.3137110967082766 l12.827467438608265,23.71553874125983 c0.818774517357975,1.4460694354426726 0.818774517357975,3.1813527579738796 0,4.627422193416552 C158.67130630363758,69.5636114397099 157.03375726892162,70.43125310097548 155.3962082342057,70.43125310097548 zM137.65609369144957,60.88719482705386 h10.098219047415018 l-5.1855719432671705,-9.254844386833105 L137.65609369144957,60.88719482705386 z" id="svg_15" class="" fill="#000099" fill-opacity="1" opacity="1" stroke-opacity="1" stroke="#4a6cd3"/></g></svg>